<svg width="41" height="41" viewBox="0 0 41 41" fill="none" xmlns="http://www.w3.org/2000/svg">
<path d="M2.34497 22.3559H23.9694C23.3247 22.7108 22.7243 23.1499 22.1944 23.6936C20.6532 25.2746 19.7854 26.9555 19.3025 28.2434C19.061 28.8876 18.915 29.4356 18.8287 29.8274C18.7856 30.0234 18.7573 30.1808 18.7395 30.292C18.7306 30.3476 18.7243 30.3918 18.7201 30.4235C18.718 30.4393 18.7164 30.4521 18.7152 30.4617L18.7138 30.4736L18.7134 30.4777L18.7132 30.4793C18.7132 30.4793 18.7131 30.4806 19.4359 30.563C20.1587 30.6453 20.1586 30.6459 20.1586 30.6459L20.1588 30.6448L20.1612 30.6256C20.1638 30.6067 20.1681 30.5757 20.1749 30.5337C20.1883 30.4497 20.2112 30.3214 20.2476 30.1561C20.3204 29.8251 20.4471 29.3472 20.6601 28.779C21.0864 27.6421 21.8549 26.1521 23.2229 24.7487C24.5081 23.4302 26.4053 22.8085 28.4825 22.5365C29.3068 22.4285 30.1363 22.3778 30.9419 22.3559H32.0334C32.1275 22.3562 32.2209 22.3561 32.3134 22.3559H34.345V20.8488H32.3134C32.2209 20.8486 32.1275 20.8486 32.0334 20.8488H30.9419C30.1363 20.827 29.3068 20.7763 28.4825 20.6683C26.4053 20.3963 24.5081 19.7746 23.2229 18.456C21.8549 17.0527 21.0864 15.5627 20.6601 14.4258C20.4471 13.8576 20.3204 13.3797 20.2476 13.0487C20.2112 12.8834 20.1883 12.7551 20.1749 12.6711C20.1681 12.629 20.1638 12.5981 20.1612 12.5792L20.1588 12.56L20.1586 12.5589C20.1586 12.5589 20.1587 12.5594 19.4359 12.6418C18.7131 12.7242 18.7131 12.7248 18.7131 12.7248L18.7134 12.7271L18.7138 12.7312L18.7152 12.7431C18.7164 12.7527 18.718 12.7655 18.7201 12.7813C18.7243 12.813 18.7306 12.8572 18.7395 12.9128C18.7573 13.024 18.7856 13.1814 18.8287 13.3774C18.915 13.7692 19.061 14.3172 19.3025 14.9614C19.7854 16.2493 20.6532 17.9302 22.1944 19.5112C22.7243 20.0549 23.3247 20.494 23.9694 20.8488H2.34497V22.3559Z" fill="white"/>
</svg>
