<svg width="1059" height="1115" viewBox="0 0 1059 1115" fill="none" xmlns="http://www.w3.org/2000/svg">
<path d="M500.825 654.24C491.36 655.069 481.805 655.358 472.158 655.107C462.454 653.748 452.785 651.826 443.152 649.341C433.723 645.732 424.461 641.569 415.368 636.85C406.741 631.053 398.413 624.74 390.383 617.911C383.072 610.112 376.181 601.867 369.708 593.174C364.182 583.68 359.178 573.836 354.698 563.643C351.35 552.868 348.606 541.866 346.466 530.637C345.593 519.089 345.376 507.454 345.814 495.732C347.591 483.985 350.043 472.303 353.17 460.686C357.638 449.354 362.765 438.243 368.55 427.352C375.607 417.055 383.269 407.13 391.537 397.577C400.936 388.909 410.853 380.751 421.287 373.102C432.645 366.597 444.4 360.718 456.554 355.467C469.364 351.566 482.427 348.381 495.742 345.911C509.399 344.937 523.143 344.734 536.974 345.301C550.802 347.435 564.54 350.355 578.187 354.062C591.471 359.327 604.486 365.354 617.229 372.142C629.256 380.398 640.839 389.349 651.978 398.996C662.069 409.937 671.559 421.468 680.449 433.589C688.001 446.758 694.822 460.376 700.911 474.444C705.431 489.247 709.122 504.33 711.984 519.692C713.119 535.427 713.368 551.252 712.729 567.165C710.291 583.056 706.952 598.834 702.712 614.498C696.692 629.73 689.803 644.645 682.046 659.242C672.62 673.007 662.404 686.259 651.4 698.999C638.93 710.534 625.793 721.382 611.99 731.543C597.007 740.176 581.52 747.976 565.528 754.944C548.714 760.129 531.589 764.375 514.153 767.681C496.307 769.033 478.365 769.385 460.329 768.734C442.329 766.055 424.462 762.362 406.729 757.654C389.492 750.945 372.617 743.262 356.104 734.605C340.536 724.077 325.548 712.666 311.138 700.371C298.089 686.439 285.814 671.762 274.312 656.342C264.527 639.608 255.677 622.312 247.761 604.454C241.842 585.683 236.975 566.567 233.16 547.106C231.528 527.192 231.016 507.174 231.621 487.052C234.49 466.974 238.489 447.046 243.618 427.268C250.975 408.043 259.417 389.221 268.943 370.802C280.549 353.432 293.135 336.706 306.703 320.622C322.09 306.045 338.302 292.324 355.339 279.459C373.834 268.494 392.952 258.562 412.692 249.662C433.445 242.967 454.581 237.434 476.099 233.06C498.121 231.095 520.259 230.363 542.513 230.864C564.722 233.858 586.768 238.096 608.651 243.579C629.928 251.514 650.763 260.643 671.157 270.964C690.399 283.571 708.936 297.258 726.769 312.024C742.949 328.789 758.191 346.462 772.493 365.042C784.713 385.226 795.802 406.095 805.759 427.649C813.3 450.32 819.57 473.412 824.568 496.927C826.929 521.001 827.94 545.206 827.602 569.544C824.534 593.841 820.105 617.966 814.313 641.918C805.837 665.218 796.056 688.042 784.969 710.39C771.38 731.493 756.61 751.833 740.659 771.411C722.518 789.199 703.383 805.97 683.255 821.724C661.368 835.221 638.729 847.492 615.339 858.537C590.72 866.963 565.636 874.01 540.085 879.679C513.911 882.489 487.587 883.836 461.113 883.719C434.666 880.642 408.4 876.089 382.313 870.059C356.918 861.117 332.032 850.759 307.655 838.986C284.614 824.496 262.392 808.724 240.989 791.669C221.512 772.236 203.131 751.723 185.845 730.129C170.992 706.621 157.46 682.293 145.25 657.145C135.867 630.655 127.97 603.652 121.561 576.137C118.237 547.932 116.494 519.554 116.331 491.003C119.365 462.462 123.994 434.105 130.218 405.931C139.59 378.482 150.493 351.57 162.927 325.195C178.299 300.238 195.06 276.152 213.208 252.938C233.934 231.777 255.832 211.785 278.901 192.962C304.05 176.737 330.091 161.925 357.025 148.527C385.425 138.152 414.388 129.369 443.913 122.177C474.204 118.29 504.694 116.096 535.381 115.595C566.084 118.52 596.603 123.156 626.937 129.503C656.52 139.228 685.538 150.596 713.992 163.608C740.95 179.777 766.984 197.438 792.095 216.592C815.027 238.52 836.716 261.711 857.162 286.165C874.843 312.863 891.017 340.527 905.685 369.158C917.129 399.38 926.874 430.217 934.921 461.669C939.438 493.968 942.146 526.493 943.045 559.244C940.28 592.042 935.685 624.658 929.258 657.094C919.216 688.758 907.413 719.835 893.848 750.325C876.899 779.25 858.347 807.205 838.193 834.189C815.059 858.878 790.565 882.256 764.712 904.321C736.439 923.464 707.122 941.013 676.761 956.969C644.672 969.509 611.912 980.249 578.481 989.188C544.114 994.382 509.489 997.656 474.606 999.009C439.638 996.47 404.846 991.984 370.23 985.551C336.399 975.271 303.176 963.115 270.561 949.084C239.577 931.444 209.611 912.095 180.66 891.036C154.121 866.793 128.963 841.095 105.186 813.942C84.4919 784.195 65.4804 753.325 48.1521 721.332C34.4339 687.475 22.6212 652.888 12.7141 617.573C6.77303 581.228 2.86839 544.59 0.999978 507.661C3.26074 470.602 7.58879 433.709 13.9841 396.983C24.4677 361.049 36.9466 325.74 51.4207 291.053C69.737 258.057 89.8755 226.118 111.836 195.236C137.197 166.87 164.113 139.95 192.584 114.475C223.835 92.2299 256.293 71.7516 289.957 53.0399C325.633 38.1223 362.101 25.2096 399.36 14.3017C437.75 7.57051 476.471 2.98591 515.523 0.547828C554.754 2.46634 593.832 6.56795 632.756 12.8527C670.885 23.4587 708.376 36.1759 745.229 51.0042C780.337 69.902 814.348 90.7323 847.26 113.495C877.551 139.868 906.332 167.896 933.603 197.579C957.493 230.226 979.531 264.163 999.717 299.389C1015.92 336.776 1030.01 375.018 1042 414.115C1049.6 454.449 1054.93 495.154 1058 536.23C1056.48 577.544 1052.65 618.719 1046.52 659.757C1035.83 700.006 1022.9 739.607 1007.74 778.561C988.275 815.724 966.759 851.755 943.194 886.653C915.796 918.835 886.639 949.448 855.722 978.494C821.646 1004.02 786.191 1027.61 749.356 1049.28C710.204 1066.78 670.127 1082.08 629.126 1095.17C586.775 1103.67 544.008 1109.79 500.825 1113.55" stroke="url(#paint0_radial_20_306)" stroke-opacity="0.7"/>
<path d="M500.825 654.24C491.36 655.069 481.805 655.358 472.158 655.107C462.454 653.748 452.785 651.826 443.152 649.341C433.723 645.732 424.461 641.569 415.368 636.85C406.741 631.053 398.413 624.74 390.383 617.911C383.072 610.112 376.181 601.867 369.708 593.174C364.182 583.68 359.178 573.836 354.698 563.643C351.35 552.868 348.606 541.866 346.466 530.637C345.593 519.089 345.376 507.454 345.814 495.732C347.591 483.985 350.043 472.303 353.17 460.686C357.638 449.354 362.765 438.243 368.55 427.352C375.607 417.055 383.269 407.13 391.537 397.577C400.936 388.909 410.853 380.751 421.287 373.102C432.645 366.597 444.4 360.718 456.554 355.467C469.364 351.566 482.427 348.381 495.742 345.911C509.399 344.937 523.143 344.734 536.974 345.301C550.802 347.435 564.54 350.355 578.187 354.062C591.471 359.327 604.486 365.354 617.229 372.142C629.256 380.398 640.839 389.349 651.978 398.996C662.069 409.937 671.559 421.468 680.449 433.589C688.001 446.758 694.822 460.376 700.911 474.444C705.431 489.247 709.122 504.33 711.984 519.692C713.119 535.427 713.368 551.252 712.729 567.165C710.291 583.056 706.952 598.834 702.712 614.498C696.692 629.73 689.803 644.645 682.046 659.242C672.62 673.007 662.404 686.259 651.4 698.999C638.93 710.534 625.793 721.382 611.99 731.543C597.007 740.176 581.52 747.976 565.528 754.944C548.714 760.129 531.589 764.375 514.153 767.681C496.307 769.033 478.365 769.385 460.329 768.734C442.329 766.055 424.462 762.362 406.729 757.654C389.492 750.945 372.617 743.262 356.104 734.605C340.536 724.077 325.548 712.666 311.138 700.371C298.089 686.439 285.814 671.762 274.312 656.342C264.527 639.608 255.677 622.312 247.761 604.454C241.842 585.683 236.975 566.567 233.16 547.106C231.528 527.192 231.016 507.174 231.621 487.052C234.49 466.974 238.489 447.046 243.618 427.268C250.975 408.043 259.417 389.221 268.943 370.802C280.549 353.432 293.135 336.706 306.703 320.622C322.09 306.045 338.302 292.324 355.339 279.459C373.834 268.494 392.952 258.562 412.692 249.662C433.445 242.967 454.581 237.434 476.099 233.06C498.121 231.095 520.259 230.363 542.513 230.864C564.722 233.858 586.768 238.096 608.651 243.579C629.928 251.514 650.763 260.643 671.157 270.964C690.399 283.571 708.936 297.258 726.769 312.024C742.949 328.789 758.191 346.462 772.493 365.042C784.713 385.226 795.802 406.095 805.759 427.649C813.3 450.32 819.57 473.412 824.568 496.927C826.929 521.001 827.94 545.206 827.602 569.544C824.534 593.841 820.105 617.966 814.313 641.918C805.837 665.218 796.056 688.042 784.969 710.39C771.38 731.493 756.61 751.833 740.659 771.411C722.518 789.199 703.383 805.97 683.255 821.724C661.368 835.221 638.729 847.492 615.339 858.537C590.72 866.963 565.636 874.01 540.085 879.679C513.911 882.489 487.587 883.836 461.113 883.719C434.666 880.642 408.4 876.089 382.313 870.059C356.918 861.117 332.032 850.759 307.655 838.986C284.614 824.496 262.392 808.724 240.989 791.669C221.512 772.236 203.131 751.723 185.845 730.129C170.992 706.621 157.46 682.293 145.25 657.145C135.867 630.655 127.97 603.652 121.561 576.137C118.237 547.932 116.494 519.554 116.331 491.003C119.365 462.462 123.994 434.105 130.218 405.931C139.59 378.482 150.493 351.57 162.927 325.195C178.299 300.238 195.06 276.152 213.208 252.938C233.934 231.777 255.832 211.785 278.901 192.962C304.05 176.737 330.091 161.925 357.025 148.527C385.425 138.152 414.388 129.369 443.913 122.177C474.204 118.29 504.694 116.096 535.381 115.595C566.084 118.52 596.603 123.156 626.937 129.503C656.52 139.228 685.538 150.596 713.992 163.608C740.95 179.777 766.984 197.438 792.095 216.592C815.027 238.52 836.716 261.711 857.162 286.165C874.843 312.863 891.017 340.527 905.685 369.158C917.129 399.38 926.874 430.217 934.921 461.669C939.438 493.968 942.146 526.493 943.045 559.244C940.28 592.042 935.685 624.658 929.258 657.094C919.216 688.758 907.413 719.835 893.848 750.325C876.899 779.25 858.347 807.205 838.193 834.189C815.059 858.878 790.565 882.256 764.712 904.321C736.439 923.464 707.122 941.013 676.761 956.969C644.672 969.509 611.912 980.249 578.481 989.188C544.114 994.382 509.489 997.656 474.606 999.009C439.638 996.47 404.846 991.984 370.23 985.551C336.399 975.271 303.176 963.115 270.561 949.084C239.577 931.444 209.611 912.095 180.66 891.036C154.121 866.793 128.963 841.095 105.186 813.942C84.4919 784.195 65.4804 753.325 48.1521 721.332C34.4339 687.475 22.6212 652.888 12.7141 617.573C6.77303 581.228 2.86839 544.59 0.999978 507.661C3.26074 470.602 7.58879 433.709 13.9841 396.983C24.4677 361.049 36.9466 325.74 51.4207 291.053C69.737 258.057 89.8755 226.118 111.836 195.236C137.197 166.87 164.113 139.95 192.584 114.475C223.835 92.2299 256.293 71.7516 289.957 53.0399C325.633 38.1223 362.101 25.2096 399.36 14.3017C437.75 7.57051 476.471 2.98591 515.523 0.547828C554.754 2.46634 593.832 6.56795 632.756 12.8527C670.885 23.4587 708.376 36.1759 745.229 51.0042C780.337 69.902 814.348 90.7323 847.26 113.495C877.551 139.868 906.332 167.896 933.603 197.579C957.493 230.226 979.531 264.163 999.717 299.389C1015.92 336.776 1030.01 375.018 1042 414.115C1049.6 454.449 1054.93 495.154 1058 536.23C1056.48 577.544 1052.65 618.719 1046.52 659.757C1035.83 700.006 1022.9 739.607 1007.74 778.561C988.275 815.724 966.759 851.755 943.194 886.653C915.796 918.835 886.639 949.448 855.722 978.494C821.646 1004.02 786.191 1027.61 749.356 1049.28C710.204 1066.78 670.127 1082.08 629.126 1095.17C586.775 1103.67 544.008 1109.79 500.825 1113.55" stroke="url(#paint1_radial_20_306)" stroke-opacity="0.6"/>
<defs>
<radialGradient id="paint0_radial_20_306" cx="0" cy="0" r="1" gradientUnits="userSpaceOnUse" gradientTransform="translate(-216.5 173.048) rotate(27.8101) scale(802.714 845.242)">
<stop stop-color="#DB00FF"/>
<stop offset="1" stop-color="#FFD600" stop-opacity="0"/>
</radialGradient>
<radialGradient id="paint1_radial_20_306" cx="0" cy="0" r="1" gradientUnits="userSpaceOnUse" gradientTransform="translate(1286.5 710.048) rotate(-168.419) scale(809.478 852.365)">
<stop stop-color="#A889FF"/>
<stop offset="1" stop-color="#FFD600" stop-opacity="0"/>
</radialGradient>
</defs>
</svg>
