<svg width="201" height="56" viewBox="0 0 201 56" fill="none" xmlns="http://www.w3.org/2000/svg">
<path d="M35.2103 6.27845L35.2642 6.4364C35.476 6.12051 35.5801 5.85487 35.7919 5.53897C35.8457 5.69692 35.8457 5.85487 35.7919 6.01281L36.0037 5.85487L36.2154 6.01281C36.2154 6.27486 35.8996 6.80615 35.9498 7.0682L36.1078 7.1723C36.1078 7.22615 36.5816 7.4882 36.5313 7.69999L36.5852 7.85794C36.5313 8.43948 36.2693 8.96717 36.1616 9.49486L36.3195 9.33691V9.49486C36.3195 9.7605 35.896 11.6056 35.7919 11.8174C34.5785 18.2036 32.6257 25.5913 30.7267 31.8159C30.0949 33.3451 29.0396 37.4625 25.8734 38.622C25.6114 38.7261 25.3996 38.78 25.2416 38.78C24.9257 38.78 24.6601 38.622 23.9744 38.4641C20.6503 37.6205 20.2806 31.5502 20.3847 28.6497C20.5965 22.3174 22.0719 16.039 22.2837 9.65281V9.44101C20.8047 10.0226 14.2642 24.902 13.155 28.122C12.5734 29.863 11.518 32.0815 10.6745 33.5569C9.72317 35.4559 8.24779 37.6205 6.98061 38.3061C6.39907 38.622 5.87138 39.0456 5.23959 39.0456C1.11857 39.0492 -0.145023 34.0882 0.012926 30.1861C0.0667721 28.1795 0.224721 25.8605 0.698566 23.8538C0.802669 23.0605 1.12216 22.1128 1.17241 21.3195V21.2154C1.80421 18.839 6.02574 4.27538 6.02574 3.95948C6.97702 1.05538 6.18369 0.423589 7.08112 0C7.82061 0 8.40215 0.157949 9.08779 0.473846C9.40368 0.577948 9.35343 0.897435 9.88112 1.42513C9.98522 1.79487 10.0391 2.16461 10.0391 2.63846C9.98522 4.85333 8.92984 9.12871 8.29804 11.2933C6.66112 16.94 3.91856 25.7528 3.91856 32.0851C3.86472 32.7707 4.13036 36.2025 4.86984 36.2025C7.8242 35.2512 14.1062 12.9841 20.4385 7.28358C20.6503 7.12563 21.3898 6.5441 21.7057 6.59794C21.9714 6.5441 22.2873 6.33589 22.6032 6.33589C25.2416 6.33589 26.139 9.97589 26.0852 12.2446C25.9811 15.4108 25.4534 18.681 25.0837 21.8472C24.7139 24.6974 24.4519 29.023 24.2903 31.8733C24.2365 33.0328 24.5021 35.3015 25.0298 36.3605C27.2985 35.6748 32.4175 9.60614 35.2678 5.9123H35.3216L35.2175 6.28204L35.2103 6.27845Z" fill="white"/>
<path d="M48.5606 25.5947L48.6647 25.8065C48.6647 26.1224 48.4027 26.4922 48.4027 26.7578C48.4027 26.8117 48.5606 26.8619 48.5606 26.8619L48.6647 27.0199C48.6109 27.7055 48.0832 28.287 47.9252 28.8147C46.5539 32.2968 41.3811 38.0511 38.3227 38.0511C38.1647 38.0511 38.0606 37.9973 37.9529 37.9973C34.6288 37.5234 32.7801 35.4629 32.9381 32.1927C33.1499 28.4988 36.2622 22.3783 39.0586 20.2137L39.1124 20.1096C39.1663 19.9517 39.8519 19.9517 40.0637 19.9517C40.4334 19.9517 42.0704 20.5332 42.3863 20.6911C43.4416 21.007 43.9693 21.3768 43.9693 22.5901C43.9693 27.3932 37.8991 27.4434 37.795 27.6552C37.0555 28.9763 34.7329 36.0445 37.6909 36.0445C40.1714 36.0445 44.9745 30.2937 46.4498 28.1291C46.8734 27.4973 48.0329 25.5445 48.6145 25.2286C48.6145 25.3327 48.6145 25.4942 48.5606 25.5983V25.5947ZM38.7463 25.5947C40.9611 25.1209 42.336 23.2183 41.2806 22.1127C40.8068 22.3747 39.3816 24.4891 38.7463 25.5947Z" fill="white"/>
<path d="M59.2687 24.5394C59.2149 24.6435 59.1646 24.805 59.1646 24.9092C59.1646 25.0133 58.8487 25.5948 58.7949 25.6486L58.8487 25.9143L58.9528 25.8604V25.9143L58.899 26.1763C58.6872 26.442 58.5831 26.5999 58.5292 26.862C58.6333 26.7579 58.6872 26.4922 58.899 26.2804V26.4384C58.899 26.7543 57.6318 28.7071 57.42 29.2348C57.7359 28.8112 58.0015 28.3912 58.3174 27.9676C58.2636 28.1794 58.0518 28.3374 58.0015 28.4953L58.1595 28.6532C58.0015 28.9189 57.8436 29.023 57.7359 29.285C57.6318 29.3891 57.0502 30.3404 56.9426 30.6025L56.7846 30.6563L56.8887 30.8143L56.6769 30.8681L56.5728 31.1302C56.4149 31.2881 56.361 31.4999 56.1492 31.604C55.8333 32.2358 55.1477 33.083 54.7241 33.6609C53.3528 35.3481 51.7697 38.0404 49.3933 38.0404C49.1815 38.0404 49.0236 38.0404 48.8118 37.9866C46.4354 37.563 45.5918 35.402 45.5918 33.6609C45.5918 27.2245 48.6538 20.203 50.6031 14.2404C51.0267 12.923 51.5005 10.9702 52.1323 9.70302L52.2364 9.64917C52.8682 9.80712 54.1892 9.91481 54.7169 10.9163C55.3487 12.2876 54.1892 18.1461 51.6046 23.9507C50.2836 27.3825 49.0703 30.8107 49.0703 34.1348C49.0703 34.9281 49.0164 35.7179 49.3862 36.3497H49.5979C53.3959 32.444 56.4041 28.0645 57.5133 26.4815C58.041 25.6379 58.6226 24.6327 59.3082 23.8968V24.1589C59.3082 24.3168 59.3082 24.3707 59.2543 24.5286L59.2687 24.5394Z" fill="white"/>
<path d="M69.6791 24.5394C69.6253 24.6435 69.575 24.805 69.575 24.9092C69.575 25.0133 69.2591 25.5948 69.2053 25.6486L69.2591 25.9143L69.3632 25.8604V25.9143L69.3094 26.1763C69.0976 26.442 68.9935 26.5999 68.9396 26.862C69.0437 26.7579 69.0976 26.4922 69.3094 26.2804V26.4384C69.3094 26.7543 68.0422 28.7071 67.8304 29.2348C68.1463 28.8112 68.4119 28.3912 68.7278 27.9676C68.674 28.1794 68.4622 28.3374 68.4119 28.4953L68.5699 28.6532C68.4119 28.9189 68.254 29.023 68.1463 29.285C68.0422 29.3891 67.4606 30.3404 67.353 30.6025L67.195 30.6563L67.2991 30.8143L67.0873 30.8681L66.9832 31.1302C66.8253 31.2881 66.7714 31.4999 66.5596 31.604C66.2437 32.2358 65.5581 33.083 65.1345 33.6609C63.7632 35.3481 62.1801 38.0404 59.8037 38.0404C59.5919 38.0404 59.434 38.0404 59.2222 37.9866C56.8458 37.563 56.0022 35.402 56.0022 33.6609C56.0022 27.2245 59.0642 20.203 61.0135 14.2404C61.4371 12.923 61.9109 10.9702 62.5427 9.70302L62.6468 9.64917C63.2786 9.80712 64.5996 9.91481 65.1273 10.9163C65.7591 12.2876 64.5996 18.1461 62.015 23.9507C60.694 27.3825 59.4807 30.8107 59.4807 34.1348C59.4807 34.9281 59.4268 35.7179 59.7966 36.3497H60.0083C63.8063 32.444 66.8145 28.0645 67.9237 26.4815C68.4514 25.6379 69.033 24.6327 69.7186 23.8968V24.1589C69.7186 24.3168 69.7186 24.3707 69.6647 24.5286L69.6791 24.5394Z" fill="white"/>
<path d="M70.7847 27.0702V27.1241C71.5241 25.1712 73.897 20.2102 77.0129 20.1061C79.917 20.0523 80.8646 24.1697 80.6528 26.1225C80.599 26.7041 80.5487 26.862 80.5487 27.1779V27.2318C81.5 26.8082 83.1334 25.8605 84.5585 25.8605C84.7164 25.8605 84.9282 25.8605 85.0862 25.9143C85.2441 25.9143 85.4021 26.1261 85.56 26.1764L85.6139 26.2302C85.56 26.3882 85.4021 26.3882 85.3518 26.4959L85.4057 26.5497C85.4057 26.6035 85.3016 26.6035 85.3016 26.6035H85.1436L85.3016 26.8153L84.9857 26.9194L84.9318 27.0774H84.9857V27.1312C83.8764 27.4471 80.5523 29.1379 79.9205 29.7159C78.8113 33.1979 76.1226 36.9456 73.6421 38.5825C72.9564 38.8482 72.6406 39.164 71.7431 39.164H71.5313C69.7365 39.164 69.3667 38.5323 68.1534 37.8466L67.9954 37.6348C67.9954 37.4769 68.2072 37.3189 68.3652 37.2651C68.6811 36.7374 68.997 36.1558 69.4206 35.5779L69.3165 35.682L69.0006 35.3123V35.4164C69.1047 35.5743 69.1585 35.5743 69.1585 35.682L69.1047 35.7358C67.3098 35.262 66.4662 33.8871 66.4124 32.4656C66.4124 31.5682 66.7283 29.9312 66.94 29.0877C67.8913 24.2846 71.8472 14.2584 72.7985 10.8805C72.9026 10.7225 72.7985 10.299 72.6944 10.0872C73.0103 10.0872 74.4893 10.6687 74.859 10.8805C76.1262 11.62 73.8575 17.5287 73.6457 18.1641C72.5903 20.9066 71.219 24.9702 70.7954 27.081L70.7847 27.0702ZM69.4134 35.5671C69.4672 35.5133 69.4672 35.463 69.5175 35.4092C71.2585 33.0364 73.739 30.5559 76.3775 28.8112C77.1708 27.4938 78.3303 21.9512 77.1708 22.0051C74.9559 22.0589 70.7344 31.6076 69.7831 33.9841C69.6252 34.3538 69.7293 34.6697 69.6252 35.0394L69.4672 35.1435L69.5211 35.4056C69.4672 35.3517 69.3093 35.3015 69.259 35.2476L69.417 35.5635L69.4134 35.5671ZM74.6364 32.9287L75.0062 32.4548C74.0549 33.1943 72.2636 35.1471 70.8888 37.0461L71.1006 37.1502C71.3124 36.9923 71.4703 36.9384 71.5241 36.7266V36.6728L71.6282 36.7266C72.7877 35.883 73.897 34.142 74.6364 32.9287Z" fill="white"/>
<path d="M98.0128 25.5947L98.1169 25.8065C98.1169 26.1224 97.8548 26.4922 97.8548 26.7578C97.8548 26.8117 98.0128 26.8619 98.0128 26.8619L98.1169 27.0199C98.063 27.7055 97.5353 28.287 97.3774 28.8147C96.0061 32.2968 90.8333 38.0511 87.7748 38.0511C87.6169 38.0511 87.5128 37.9973 87.4051 37.9973C84.081 37.5234 82.2323 35.4629 82.3902 32.1927C82.602 28.4988 85.7143 22.3783 88.5107 20.2137L88.5646 20.1096C88.6184 19.9517 89.3041 19.9517 89.5158 19.9517C89.8856 19.9517 91.5225 20.5332 91.8384 20.6911C92.8938 21.007 93.4215 21.3768 93.4215 22.5901C93.4215 27.3932 87.3512 27.4434 87.2471 27.6552C86.5076 28.9763 84.1851 36.0445 87.143 36.0445C89.6235 36.0445 94.4266 30.2937 95.902 28.1291C96.3256 27.4973 97.4851 25.5445 98.0666 25.2286C98.0666 25.3327 98.0666 25.4942 98.0128 25.5983V25.5947ZM88.1984 25.5947C90.4133 25.1209 91.7881 23.2183 90.7328 22.1127C90.2589 22.3747 88.8338 24.4891 88.1984 25.5947Z" fill="white"/>
<path d="M107.669 25.9645C107.669 26.1225 107.615 26.2804 107.511 26.4384L107.615 26.4922C107.404 26.9158 107.192 27.5476 107.088 28.0215C107.088 28.0753 106.984 28.1256 107.088 28.1256C104.923 31.4497 103.182 33.8261 100.702 35.9368C99.9082 36.2527 99.4343 36.6763 98.4866 36.6763C96.9036 36.2527 94.7928 34.9891 94.9508 32.1891C95.1087 28.6533 97.4851 22.8486 97.9051 21.7933L98.1169 21.6353C98.4866 21.5815 99.4379 21.5815 99.8041 21.5815C100.174 21.6353 100.386 21.7933 100.544 22.0553C100.648 22.3712 100.755 22.7948 100.702 23.1107C99.8041 27.1743 97.8513 32.0815 98.3251 34.5081C98.3251 34.6661 98.4292 34.7199 98.5907 34.7199C100.228 34.824 103.868 29.3353 107.404 24.9056L107.666 24.6938C107.612 25.1676 107.666 25.5374 107.666 25.961L107.669 25.9645ZM99.8579 20.3717L99.542 20.1599H99.4379C99.28 20.1599 98.9102 19.6322 98.9102 19.5281C98.9641 18.6846 99.4379 18.0492 100.177 17.5215C100.493 17.4174 100.759 17.3635 101.021 17.3635C101.445 17.3635 101.972 17.6794 102.13 17.9451L102.288 18.5266C102.342 18.5804 102.342 18.6307 102.342 18.6307C102.342 19.2122 101.183 19.7399 100.705 20.1097L99.8615 20.4256V20.3717H99.8579Z" fill="white"/>
<path d="M122.865 26.2805C123.127 26.4385 123.076 26.5964 123.076 26.8621C122.865 27.4436 123.13 27.9713 123.022 28.499C121.493 31.4533 119.225 36.4144 115.581 37.2077C113.574 37.2077 112.045 35.7287 111.991 33.6718C111.833 30.9795 113.52 26.5462 113.416 25.1749C113.416 24.9128 113.312 25.1749 113.312 25.1749C110.778 28.4451 108.297 31.981 106.98 35.9943C106.768 36.5759 106.664 36.9959 106.556 37.2077C106.398 37.2077 106.294 37.2615 106.24 37.3118H105.817C105.659 37.2579 105.763 37.2077 105.605 37.1538L105.501 37.2579C105.289 37.0461 104.55 36.7302 104.341 36.7302C104.13 36.5723 104.13 36.3605 103.918 36.2564L103.814 36.2026C103.71 35.8867 103.602 35.7287 103.602 35.359C103.444 31.7692 106.872 23.6456 106.714 21.6928V21.3769L106.768 21.061C107.084 21.1149 108.247 21.3267 108.775 21.4846C110.358 22.0123 109.46 25.4944 109.091 26.7077L108.987 26.8656C109.514 26.2841 112.311 22.5903 113.682 22.4862C114.633 22.6441 116.162 23.2256 116.425 23.8574C116.478 23.9615 116.478 24.2272 116.529 24.3851C117.16 26.6 114.576 32.5123 115.473 35.4128H115.527C116.794 35.0969 119.379 31.1913 121.278 27.9713C121.54 27.4436 122.545 25.9144 122.757 25.7564C122.915 25.8103 122.915 26.0723 122.861 26.2841L122.865 26.2805Z" fill="white"/>
<path d="M142.971 26.4385L142.813 26.7544C141.126 27.7057 138.907 29.077 137.062 30.3442L136.638 32.5088C136.007 37.3118 132.047 46.3329 127.826 48.4472C127.456 48.659 126.347 49.2405 125.819 49.2405C125.345 49.2405 124.394 48.9749 123.97 48.6087H123.916C123.651 48.239 122.387 47.6575 122.229 47.1836C122.333 47.1298 122.229 47.0257 122.175 46.9718C122.071 46.8677 122.017 46.6559 122.017 46.4441L122.229 46.2323C122.229 46.0205 122.387 45.8087 122.441 45.5467L122.545 45.3888C124.128 40.058 129.193 32.8283 133.785 29.6118C134.208 28.8185 134.366 23.0678 134.366 23.2795C133.257 24.6508 132.783 25.656 131.624 27.1313C130.356 28.7683 125.237 35.7324 123.023 35.7324C121.124 35.7324 119.591 33.2518 119.591 31.6149C119.591 28.0252 124.078 20.9031 128.562 20.9031C129.405 20.9031 129.987 21.6426 130.672 21.8006L131.516 22.3821C132.202 21.7503 134.208 19.7437 135.106 19.7437C135.21 19.7437 135.317 19.8478 135.633 19.8478L135.791 19.7939C136.319 20.0595 136.901 20.1098 137.058 20.5334C137.321 21.0611 137.428 24.1734 137.428 24.597C137.428 25.5483 137.324 26.496 137.324 27.4472V27.5513C138.853 26.9195 140.067 25.9144 142.285 25.2826H142.389C142.705 25.2826 142.971 25.5985 143.233 25.6524L142.971 25.7565C143.075 25.8103 143.233 25.8103 143.394 25.8606L142.813 26.1262L142.759 26.2303C143.021 26.2303 143.233 26.1765 143.445 26.1765C143.287 26.2303 143.129 26.3883 142.971 26.4421V26.4385ZM130.252 23.8539C129.99 23.696 129.779 23.6421 129.513 23.6421C127.456 23.6421 124.764 27.4939 123.604 29.7124C123.13 30.5559 122.707 31.9811 122.865 33.0903C123.974 32.5088 129.725 24.7011 130.252 23.8539ZM133.472 33.0365C133.314 33.1406 133.156 33.2483 132.998 33.4062C130.622 35.7288 125.295 42.7467 125.295 46.1785H125.349C125.719 46.0744 126.142 45.9128 126.192 45.597C126.296 45.597 126.454 45.5431 126.454 45.439L126.508 45.5431C128.989 43.9062 131.573 38.737 132.578 35.9406C132.683 35.7826 133.476 33.198 133.476 33.198V33.04L133.472 33.0365Z" fill="white"/>
<path d="M151.809 47.3451C151.708 47.2446 151.64 47.0867 151.611 46.8713C151.582 46.6595 151.647 46.3795 151.809 46.0313C152.092 45.4605 152.484 44.9221 152.982 44.4159C153.481 43.9062 154.041 43.4395 154.659 43.0123C155.28 42.5851 155.951 42.1975 156.673 41.8528C157.394 41.5082 158.123 41.2103 158.855 40.9698C159.017 40.5641 159.103 40.1728 159.114 39.7959C159.125 39.419 159.017 39.0887 158.794 38.8052C158.633 38.5826 158.414 38.4175 158.137 38.3169C157.865 38.2164 157.552 38.1949 157.208 38.2559C156.658 38.3564 156.023 38.6687 155.301 39.1857C154.58 39.7062 153.866 40.2949 153.166 40.9554C152.466 41.6159 151.823 42.2692 151.245 42.9082C150.667 43.5472 150.254 44.0318 150.01 44.3585C149.928 44.441 149.849 44.4446 149.766 44.3728C149.684 44.301 149.676 44.2149 149.737 44.1144V44.0821C149.777 43.9995 149.899 43.7267 150.104 43.26C150.308 42.7934 150.556 42.219 150.85 41.5369C151.145 40.8549 151.471 40.1082 151.827 39.2934C152.182 38.4785 152.534 37.6816 152.878 36.899C153.223 36.1164 153.55 35.3877 153.855 34.7164C154.16 34.0452 154.404 33.5175 154.587 33.1298C154.67 32.9467 154.817 32.8641 155.029 32.8857C155.244 32.9072 155.309 33.0185 155.226 33.2231C155.165 33.3057 155.029 33.5498 154.813 33.9554C154.598 34.3611 154.35 34.86 154.067 35.4523C153.783 36.0411 153.478 36.698 153.151 37.4195C152.825 38.141 152.501 38.859 152.175 39.5698C151.848 40.2805 151.539 40.959 151.245 41.598C150.951 42.2369 150.71 42.7718 150.527 43.199C150.933 42.7323 151.417 42.2082 151.977 41.6267C152.537 41.0451 153.122 40.4923 153.733 39.9646C154.343 39.4369 154.953 38.9775 155.563 38.5898C156.174 38.2021 156.723 37.9687 157.211 37.8862C158.087 37.7641 158.737 37.9975 159.164 38.5898C159.387 38.9164 159.509 39.261 159.53 39.6272C159.552 39.9934 159.509 40.381 159.408 40.7867C160.201 40.5426 160.984 40.3631 161.756 40.2518C162.528 40.1405 163.242 40.0939 163.892 40.1154C164.014 40.1154 164.075 40.1764 164.075 40.2985C164.075 40.4205 164.014 40.4816 163.892 40.4816C163.059 40.4816 162.255 40.5534 161.483 40.6934C160.711 40.8369 159.968 41.02 159.254 41.2426C159.049 41.7918 158.751 42.3446 158.353 42.9046C157.954 43.4646 157.513 43.9995 157.025 44.5057C156.536 45.0154 156.027 45.4821 155.499 45.9092C154.971 46.3364 154.461 46.681 153.973 46.9467C153.485 47.2123 153.047 47.3882 152.663 47.4816C152.275 47.5713 151.992 47.5282 151.809 47.3451ZM152.085 47.101C152.247 47.2841 152.613 47.2267 153.184 46.9323C153.754 46.638 154.382 46.2036 155.075 45.6364C155.768 45.0657 156.443 44.4123 157.103 43.6692C157.764 42.9262 158.277 42.1903 158.643 41.458C157.811 41.7631 157.032 42.1149 156.31 42.5098C155.589 42.9082 154.942 43.3175 154.372 43.7446C153.801 44.1718 153.331 44.599 152.954 45.0262C152.577 45.4533 152.308 45.841 152.146 46.1857C151.963 46.6128 151.941 46.918 152.085 47.101Z" fill="white"/>
<path d="M163.737 54.0903C162.722 55.0882 161.885 55.677 161.235 55.86C160.586 56.0431 160.087 55.9605 159.738 55.6159C159.516 55.3934 159.376 55.0775 159.326 54.6682C159.275 54.2626 159.301 53.8175 159.401 53.34C159.502 52.8626 159.67 52.3564 159.904 51.8288C160.137 51.3011 160.406 50.8021 160.711 50.3354C161.178 49.6426 161.752 48.957 162.434 48.2749C163.116 47.5929 163.849 46.9826 164.631 46.4441C165.414 45.9057 166.222 45.4821 167.058 45.177C167.891 44.8718 168.695 44.7283 169.467 44.7498C169.872 43.6908 170.113 42.6857 170.185 41.7272C170.256 40.7724 170.066 39.9359 169.621 39.2252C169.316 39.5913 168.917 40.0688 168.433 40.6611C167.945 41.2498 167.41 41.8098 166.832 42.3375C166.25 42.8652 165.662 43.2888 165.062 43.6047C164.463 43.9206 163.917 43.9959 163.429 43.8344C163.023 43.6298 162.804 43.2888 162.772 42.8113C162.743 42.3339 162.808 41.8349 162.969 41.3144C163.131 40.7975 163.361 40.3021 163.655 39.8354C163.949 39.3688 164.229 39.0313 164.495 38.8303C164.617 38.7298 164.735 38.719 164.847 38.798C164.958 38.8806 164.983 38.9703 164.922 39.0744C164.8 39.218 164.595 39.4908 164.312 39.8965C164.028 40.3021 163.773 40.7472 163.551 41.2247C163.328 41.7021 163.188 42.1544 163.138 42.5816C163.088 43.0088 163.235 43.3139 163.58 43.497C164.007 43.6621 164.506 43.5688 165.076 43.2242C165.647 42.8795 166.222 42.4308 166.8 41.8816C167.381 41.3324 167.909 40.7616 168.386 40.1729C168.864 39.5842 169.226 39.1354 169.47 38.8303C169.592 38.7083 169.693 38.7083 169.775 38.8303C170.346 39.6021 170.615 40.5067 170.583 41.5442C170.551 42.5816 170.335 43.6693 169.926 44.8108C170.231 44.8503 170.536 44.9472 170.842 45.1016C171.147 45.2559 171.412 45.4534 171.635 45.6975C171.857 45.9416 172.03 46.2144 172.152 46.5195C172.274 46.8247 172.313 47.1513 172.274 47.4959C172.252 47.6395 172.191 47.7041 172.091 47.6934C171.99 47.6826 171.94 47.6288 171.94 47.5247C171.98 46.8929 171.796 46.3544 171.391 45.9057C170.985 45.457 170.454 45.2057 169.804 45.1447C169.46 46.0421 169.032 46.9252 168.523 47.8011C168.013 48.677 167.482 49.5062 166.922 50.2888C166.362 51.0713 165.802 51.7929 165.242 52.457C164.682 53.1175 164.179 53.6631 163.73 54.0903H163.737ZM163.343 53.997C163.77 53.5913 164.258 53.06 164.807 52.4103C165.356 51.7606 165.906 51.0426 166.455 50.26C167.004 49.4775 167.532 48.6447 168.042 47.758C168.551 46.8749 168.986 45.9954 169.352 45.1195C168.742 45.1195 168.074 45.2416 167.352 45.4857C166.631 45.7298 165.902 46.0852 165.17 46.5518C164.437 47.0185 163.72 47.5857 163.02 48.2462C162.316 48.9067 161.673 49.6426 161.081 50.4575C160.797 50.8631 160.535 51.3154 160.302 51.8144C160.069 52.3134 159.889 52.7944 159.767 53.2647C159.645 53.7313 159.588 54.1657 159.598 54.5605C159.609 54.959 159.724 55.2462 159.95 55.4293C160.234 55.6734 160.654 55.7093 161.203 55.537C161.752 55.3647 162.463 54.8513 163.339 53.997H163.343Z" fill="white"/>
<path d="M199.007 47.3451C198.213 48.0379 197.409 48.4328 196.598 48.5333C195.783 48.6338 194.982 48.5333 194.186 48.2282C193.392 47.9231 192.62 47.46 191.867 46.839C191.113 46.2179 190.402 45.5359 189.731 44.7928C189.059 44.0497 188.435 43.2959 187.853 42.5349C187.272 41.7738 186.769 41.0846 186.342 40.4743L185.455 39.2215C184.745 40.6646 184.055 42.079 183.395 43.4646C182.734 44.8467 182.16 46.0672 181.672 47.1261C181.183 48.1851 180.807 49.0179 180.541 49.6282C180.275 50.2384 180.164 50.4933 180.203 50.3892C180.142 50.4897 180.056 50.5149 179.945 50.4646C179.834 50.4143 179.809 50.339 179.87 50.2348C180.031 49.8472 180.286 49.262 180.631 48.4795C180.975 47.6969 181.385 46.7923 181.851 45.762C182.318 44.7354 182.831 43.6261 183.391 42.4379C183.951 41.2461 184.536 40.0436 185.147 38.8231C185.025 38.6615 184.913 38.5072 184.809 38.3636C184.709 38.22 184.604 38.0979 184.504 37.9974C184.299 37.8969 184.077 37.8 183.833 37.7067C183.589 37.6169 183.384 37.4877 183.222 37.3261C183.122 37.2256 183.111 37.1144 183.194 36.9923C183.276 36.8703 183.398 36.82 183.56 36.8415C183.865 36.8631 184.253 37.1359 184.719 37.6636C184.881 37.7031 185.028 37.739 185.161 37.7713C185.294 37.8036 185.441 37.8395 185.602 37.879C186.374 36.3138 187.142 34.8385 187.907 33.4528C188.668 32.0708 189.386 30.879 190.057 29.881C189.408 29.9851 188.679 30.1 187.875 30.2328C187.071 30.3656 186.259 30.5379 185.434 30.7533C184.612 30.9651 183.811 31.2415 183.039 31.5754C182.268 31.9092 181.589 32.3292 181.011 32.8246C180.43 33.3236 179.977 33.9231 179.654 34.6267C179.328 35.3303 179.206 36.1487 179.288 37.082C179.288 37.2256 179.227 37.2974 179.105 37.2974C178.983 37.2974 178.922 37.2364 178.922 37.1144C178.76 35.4056 179.288 33.9626 180.509 32.7815C181.158 32.1497 181.883 31.6472 182.677 31.2703C183.47 30.8933 184.292 30.5882 185.15 30.3549C186.005 30.1215 186.88 29.9385 187.774 29.8056C188.668 29.6728 189.555 29.5364 190.427 29.3928C190.61 29.1487 190.818 28.901 191.052 28.6462C191.285 28.3913 191.526 28.1795 191.77 28.0036C192.014 27.8313 192.247 27.7344 192.473 27.7128C192.696 27.6913 192.879 27.8026 193.022 28.0467C193.184 28.3123 193.216 28.5421 193.116 28.7323C193.015 28.9262 192.839 29.0877 192.595 29.2205C192.351 29.3533 192.057 29.4646 191.712 29.5544C191.368 29.6441 191.03 29.7231 190.703 29.7841C190.054 30.6995 189.325 31.8805 188.521 33.3236C187.717 34.7667 186.909 36.3031 186.094 37.9328C186.97 38.0333 187.889 37.9938 188.855 37.8108C189.82 37.6277 190.793 37.3369 191.77 36.942C192.746 36.5472 193.701 36.0661 194.638 35.5097C195.571 34.9497 196.433 34.3395 197.215 33.679C197.998 33.0185 198.691 32.3328 199.29 31.6185C199.89 30.9077 200.342 30.2041 200.647 29.5113C200.687 29.3892 200.766 29.3605 200.877 29.4215C200.988 29.4826 201.024 29.5651 200.984 29.6656C200.679 30.3585 200.216 31.0692 199.595 31.8015C198.974 32.5338 198.256 33.241 197.445 33.9231C196.63 34.6051 195.74 35.2405 194.774 35.8292C193.809 36.4179 192.818 36.9241 191.798 37.3405C190.782 37.7569 189.77 38.0585 188.761 38.2415C187.753 38.4246 186.794 38.4533 185.879 38.3313L185.663 38.7872L186.733 40.2518C187.2 40.8836 187.713 41.5836 188.273 42.359C188.833 43.1308 189.433 43.881 190.075 44.6025C190.714 45.3241 191.386 45.981 192.089 46.5697C192.793 47.1584 193.507 47.5964 194.239 47.88C194.972 48.1636 195.718 48.2605 196.483 48.1707C197.248 48.081 198.012 47.7077 198.788 47.0579C198.87 46.9754 198.949 46.9861 199.032 47.0902C199.114 47.1728 199.103 47.2518 199.003 47.3343L199.007 47.3451ZM185.427 38.2523C185.387 38.2523 185.305 38.2308 185.182 38.1913L185.366 38.4031L185.427 38.2523ZM192.717 28.2441C192.556 28.0826 192.337 28.0933 192.06 28.2764C191.784 28.4595 191.475 28.7862 191.131 29.2528C191.375 29.1918 191.615 29.1272 191.849 29.0554C192.082 28.9836 192.279 28.9082 192.444 28.8256C192.606 28.7431 192.717 28.6569 192.782 28.5672C192.843 28.4774 192.821 28.3697 192.721 28.2477L192.717 28.2441Z" fill="white"/>
</svg>
